{"title":"Imminent Threat 2015 WEBRiP XViD-ReLeNTLesS","uid":12683037,"size":1062528968,"categoryP":"video","categoryS":"movies","magnet":"?xt=urn:btih:ccf8abad0a0b01b4a831c8fe0a5f1c45c59afca7&amp;dn=Imminent+Threat+2015+WEBRiP+XViD-ReLeNTLesS&amp;tr=udp%3A%2F%2Ftracker.leechers-paradise.org%3A6969&amp;tr=udp%3A%2F%2Fzer0day.ch%3A1337&amp;tr=udp%3A%2F%2Fopen.demonii.com%3A1337&amp;tr=udp%3A%2F%2Ftracker.coppersurfer.tk%3A6969&amp;tr=udp%3A%2F%2Fexodus.desync.com%3A6969","seeders":2,"leechers":1,"uploader":"Mulva1989","files":1,"time":1446574460,"description":"Imminent Threat 2015 WEBRiP XViD-ReLeNTLesS\r\n\r\nJames Cromwell presents a feature documentary on the War on terror's impact on civil liberties and the strange coalition it may create between the progressive left and libertarian right on these issues.\r\n\r\nScreens @ \nhttp://extraimago.com/images/2015/11/03/ImminentThreat.2015.WEBRiP.XViD.ReLeNTLesS.avi_snapshot_00.10.47_2015.11.03_18.06.12.jpg \nhttp://extraimago.com/images/2015/11/03/ImminentThreat.2015.WEBRiP.XViD.ReLeNTLesS.avi.jpg\r\n\r\nFormat                      : AVI\r\nFormat/Info                 : Audio Video Interleave\r\nFile size                   : 1 013 MiB\r\nDuration                    : 1h 14mn\r\nOverall bit rate            : 1 912 Kbps\r\n\r\nVideo\r\nID                          : 0\r\nFormat                      : MPEG-4 Visual\r\nFormat profile              : Advanced   \r\nFormat settings, BVOP       : 1\r\nFormat settings, QPel       : No\r\nFormat settings, GMC        : No warppoints\r\nFormat settings, Matrix     : Default (H.263)\r\nMuxing mode                 : Packed bitstream\r\nCodec ID                    : XVID\r\nCodec ID/Hint               : XviD\r\nDuration                    : 1h 14mn\r\nBit rate                    : 1 712 Kbps\r\nWidth                       : 720 pixels\r\nHeight                      : 304 pixels\r\nDisplay aspect ratio        : 2.35:1\r\nFrame rate                  : 23.976 fps\r\nColor space                 : YUV\r\nChroma subsampling          : 4:2:0\r\nBit depth                   : 8 bits\r\nScan type                   : Progressive\r\nCompression mode            : Lossy\r\nBits/(Pixel*Frame)          : 0.326\r\nStream size                 : 907 MiB (90%)\r\nWriting library             : XviD 1.2.1 (UTC 2008-12-04)\r\n\r\nAudio\r\nID                          : 1\r\nFormat                      : AC-3\r\nFormat/Info                 : Audio Coding 3\r\nMode extension              : CM (complete main)\r\nFormat settings, Endianness : Big\r\nCodec ID                    : 2000\r\nDuration                    : 1h 14mn\r\nBit rate mode               : Constant\r\nBit rate                    : 192 Kbps\r\nChannel(s)                  : 2 channels\r\nChannel positions           : Front: L R\r\nSampling rate               : 48.0 KHz\r\nBit depth                   : 16 bits\r\nCompression mode            : Lossy\r\nStream size                 : 102 MiB (10%)\r\nAlignment                   : Aligned on interleaves\r\nInterleave, duration        : 64 ms (1.53 video frames)\r\nInterleave, preload duratio : 192 ms\r\nTitle                       : Imminent Threat.2025.ReLeNTLesS.audio.2.0. English","torrent":{"xt":"urn:btih:ccf8abad0a0b01b4a831c8fe0a5f1c45c59afca7","amp;dn":"Imminent+Threat+2015+WEBRiP+XViD-ReLeNTLesS","amp;tr":["udp%3A%2F%2Ftracker.leechers-paradise.org%3A6969","udp%3A%2F%2Fzer0day.ch%3A1337","udp%3A%2F%2Fopen.demonii.com%3A1337","udp%3A%2F%2Ftracker.coppersurfer.tk%3A6969","udp%3A%2F%2Fexodus.desync.com%3A6969"],"infoHash":"ccf8abad0a0b01b4a831c8fe0a5f1c45c59afca7","infoHashBuffer":{"type":"Buffer","data":[204,248,171,173,10,11,1,180,168,49,200,254,10,95,28,69,197,154,252,167]},"announce":[],"urlList":[]}}